<svg xmlns="http://www.w3.org/2000/svg" version="1.1" viewBox="15.67 443.85 619.85 190.15">
<path d="M0 0 C0.495 1.485 0.495 1.485 1 3 C2.31597973 3.70029963 3.65331404 4.36073546 5 5 C15.87898333 13.45535722 23.63549365 23.19297188 26 37 C27.26003249 51.44579706 26.56511182 64.44651702 17 76 C6.47080102 87.00126833 -5.45481746 93.94649323 -20.8125 94.375 C-28.14773931 94.22878261 -34.89606256 92.75984324 -42 91 C-41.99564941 91.82064941 -41.99129883 92.64129883 -41.98681641 93.48681641 C-41.92867378 113.27468864 -42.40970967 133.13419452 -43.8125 152.875 C-43.89927002 154.34332275 -43.89927002 154.34332275 -43.98779297 155.84130859 C-44.30222006 159.73278153 -44.56740309 162.31790533 -46.6796875 165.6484375 C-49.85162926 167.49606687 -51.67969357 167.19432966 -55.3125 166.75 C-56.65426465 166.61663488 -57.99679474 166.49083509 -59.33984375 166.37109375 C-60.07831543 166.30519043 -60.81678711 166.23928711 -61.57763672 166.17138672 C-74.57922307 165.25150024 -87.61390411 165.72289613 -100.50390625 167.5625 C-106.87042976 168.35920462 -106.87042976 168.35920462 -110 168 C-111.93339185 165.97784452 -112.90538068 164.61361079 -113.3347168 161.8293457 C-113.31062744 161.01554443 -113.28653809 160.20174316 -113.26171875 159.36328125 C-113.23384277 158.38697754 -113.2059668 157.41067383 -113.17724609 156.40478516 C-112.80864692 149.32422862 -112.35254733 142.2568292 -111.8125 135.1875 C-111.74720093 134.32973969 -111.68190186 133.47197937 -111.61462402 132.58822632 C-102.83034798 18.61315802 -102.83034798 18.61315802 -84 -3 C-63.78555934 -19.92371776 -20.45278518 -13.43221443 0 0 Z M-80 8 C-83.77532331 14.52101299 -85.23523668 22.2350672 -87.0703125 29.484375 C-88 33 -88 33 -88.98193359 35.79443359 C-90.04243888 39.1336265 -90.66600645 42.34621512 -91.21875 45.8046875 C-91.42798096 47.1035791 -91.63721191 48.4024707 -91.8527832 49.74072266 C-92.06889982 51.11875592 -92.28463246 52.49684946 -92.5 53.875 C-92.72282101 55.28044878 -92.94572159 56.68588496 -93.16870117 58.09130859 C-96.04923837 74.46356376 -96.04923837 74.46356376 -97 91 C-94.75058637 87.62587956 -93.71554523 84.27503444 -92.5625 80.4375 C-92.35818359 79.77169922 -92.15386719 79.10589844 -91.94335938 78.41992188 C-91.51551673 77.02176944 -91.09144185 75.62245987 -90.6706543 74.22216797 C-90.21855149 72.72415569 -89.75890667 71.22840153 -89.29223633 69.73486328 C-86.70725893 61.36812743 -84.71787064 52.86034572 -82.69335938 44.34375 C-79.5739961 31.56061318 -75.68660093 19.16327217 -65.12890625 10.45703125 C-48.42834781 1.08316942 -27.81208024 5.44636165 -10 8 C-18.30527841 -0.80559638 -31.1984495 -1.90630872 -42.66015625 -2.2890625 C-45.06494454 -2.32891636 -47.46994527 -2.35748392 -49.875 -2.375 C-51.02782471 -2.38885742 -52.18064941 -2.40271484 -53.3684082 -2.41699219 C-64.1450506 -2.35772416 -72.85336257 -0.57922079 -80 8 Z M-37 32 C-38.15519745 34.20166864 -38.15519745 34.20166864 -38.6171875 36.8671875 C-38.83117187 37.83527344 -39.04515625 38.80335938 -39.265625 39.80078125 C-39.46671875 40.81527344 -39.6678125 41.82976562 -39.875 42.875 C-40.09929687 43.88175781 -40.32359375 44.88851562 -40.5546875 45.92578125 C-42.07585363 52.0054426 -42.07585363 52.0054426 -41 58 C-38.56378795 59.34240256 -36.61664585 60.20341032 -34 61 C-33.34128906 61.20367188 -32.68257812 61.40734375 -32.00390625 61.6171875 C-28.94960279 62.2959216 -26.91866273 62.46119857 -24.078125 61.03515625 C-18.16204593 56.471685 -15.39259735 50.09952876 -14.0625 42.875 C-13.98487437 38.06221093 -14.40758623 36.05064652 -17 32 C-23.21961042 29.19507765 -30.88526612 28.65974276 -37 32 Z " fill="#060505" transform="translate(129,457)"/>
<path d="M0 0 C8.94656011 9.18835903 13.33755796 19.60960717 13.875 32.4375 C13.61817515 41.28807953 10.23044056 49.08379054 5.3125 56.375 C4.6525 56.375 3.9925 56.375 3.3125 56.375 C3.03664063 56.96796875 2.76078125 57.5609375 2.4765625 58.171875 C-2.41302094 67.42598594 -12.54375765 71.38820407 -21.6875 75.375 C-22.3475 75.375 -23.0075 75.375 -23.6875 75.375 C-23.49051514 75.91809814 -23.29353027 76.46119629 -23.09057617 77.02075195 C-21.17571483 82.4945475 -19.8686127 87.83346641 -19 93.5625 C-18.87407471 94.37968506 -18.74814941 95.19687012 -18.6184082 96.03881836 C-17.60153162 103.08948399 -16.86190095 110.26627052 -17.6875 117.375 C-24.50857157 124.19607157 -43.89350297 121.6944607 -52.74536133 121.90161133 C-60.98581675 122.14226699 -68.90611238 122.86179283 -76.96582031 124.62280273 C-80.26861551 125.29082268 -82.3978499 125.47477266 -85.61328125 124.3671875 C-88.50018744 121.59445274 -88.52008415 119.71670656 -88.875 115.75 C-88.94340088 115.05036133 -89.01180176 114.35072266 -89.08227539 113.62988281 C-89.30991085 111.21316602 -89.50012116 108.79515543 -89.6875 106.375 C-89.83787811 104.59108977 -89.98894781 102.80723774 -90.140625 101.0234375 C-90.48424418 96.90105598 -90.80319927 92.77737373 -91.11328125 88.65234375 C-91.51705443 83.36798989 -91.98465285 78.09264612 -92.48046875 72.81640625 C-93.84950784 58.05948259 -94.96882443 43.39015239 -95 28.5625 C-95.00531738 27.32991455 -95.01063477 26.0973291 -95.01611328 24.82739258 C-94.89729217 10.0049803 -94.89729217 10.0049803 -89.1953125 3.72363281 C-86.49192072 1.30563796 -83.45299555 -0.21771997 -80.1875 -1.75 C-79.47392334 -2.08837891 -78.76034668 -2.42675781 -78.02514648 -2.77539062 C-75.92295095 -3.75051249 -73.80860022 -4.69186122 -71.6875 -5.625 C-70.67816406 -6.08648437 -69.66882813 -6.54796875 -68.62890625 -7.0234375 C-48.94454998 -14.55530788 -18.00894079 -10.88912699 0 0 Z M-82.34594727 12.09204102 C-84.11733246 15.10645829 -84.07551265 17.22990056 -84.0859375 20.71875 C-84.09173828 22.01176025 -84.09753906 23.30477051 -84.10351562 24.63696289 C-84.09114693 26.04965394 -84.07744141 27.46233382 -84.0625 28.875 C-84.05984131 29.58832489 -84.05718262 30.30164978 -84.05444336 31.03659058 C-83.97861226 48.55381658 -82.41255365 65.95471083 -80.6875 83.375 C-74.32355425 73.82908138 -74.87853606 60.47893765 -74.1875 49.375 C-72.36363159 20.06810503 -72.36363159 20.06810503 -65.6875 12.375 C-57.40769595 5.64028759 -49.17857106 2.88495925 -38.6875 1.375 C-38.6875 1.045 -38.6875 0.715 -38.6875 0.375 C-53.27500126 -0.12482555 -71.4209097 0.78101655 -82.34594727 12.09204102 Z M-46.546875 30.1484375 C-49.86305957 36.62181149 -49.1124509 45.43610866 -47.6875 52.375 C-44.68777454 53.87486273 -43.03235121 53.8798832 -39.6875 53.375 C-37.01087221 51.33510305 -34.8985015 48.89892747 -32.6875 46.375 C-32.16285156 45.88515625 -31.63820313 45.3953125 -31.09765625 44.890625 C-28.98960505 42.81177118 -27.74621807 41.08573336 -27.5 38.10546875 C-27.75196899 34.85611866 -28.01680832 32.38556922 -29.84375 29.6328125 C-32.59619624 27.75508434 -34.89242875 27.94121067 -38.1875 27.9375 C-39.3321875 27.91816406 -40.476875 27.89882813 -41.65625 27.87890625 C-44.73967992 28.09084046 -44.73967992 28.09084046 -46.546875 30.1484375 Z " fill="#060606" transform="translate(441.6875,479.625)"/>
<path d="M0 0 C4.78843049 1.23413157 7.01162073 3.34185176 10.4140625 6.7890625 C11.50902834 7.85949491 12.60536087 8.92853127 13.703125 9.99609375 C14.22108643 10.50857666 14.73904785 11.02105957 15.27270508 11.54907227 C16.95239824 13.17762805 16.95239824 13.17762805 19.65234375 15.1796875 C21.7890625 16.9765625 21.7890625 16.9765625 22.3515625 19.9140625 C21.66619028 23.64553345 20.17803944 25.06338558 17.7890625 27.9765625 C8.62204527 41.2039435 8.62204527 41.2039435 3.7890625 55.9765625 C5.43518375 57.2064673 5.43518375 57.2064673 7.59375 58.3671875 C8.39965576 58.82617432 9.20556152 59.28516113 10.03588867 59.75805664 C10.90318604 60.24266357 11.7704834 60.72727051 12.6640625 61.2265625 C14.42864344 62.23001514 16.19296932 63.23391646 17.95703125 64.23828125 C18.80313965 64.71700684 19.64924805 65.19573242 20.52099609 65.68896484 C27.58060381 69.69675506 34.46171341 73.99867198 41.3515625 78.2890625 C42.06787842 78.73451416 42.78419434 79.17996582 43.5222168 79.63891602 C48.66985765 82.85735765 48.66985765 82.85735765 49.7890625 83.9765625 C50.81187849 89.67510875 48.15489729 93.31947075 45.296875 98 C44.79929687 98.65226563 44.30171875 99.30453125 43.7890625 99.9765625 C43.1290625 99.9765625 42.4690625 99.9765625 41.7890625 99.9765625 C41.51964844 100.69585938 41.25023437 101.41515625 40.97265625 102.15625 C39.79089198 104.97220314 38.42349895 107.48566826 36.8515625 110.1015625 C36.34753906 110.94976563 35.84351563 111.79796875 35.32421875 112.671875 C32.68951165 116.6272877 32.68951165 116.6272877 30.7890625 117.9765625 C27.90625 118.44921875 27.90625 118.44921875 24.7890625 117.9765625 C22.296875 116.03515625 22.296875 116.03515625 19.9140625 113.4140625 C16.98102541 110.29743739 14.103372 107.26096612 10.8515625 104.4765625 C7.58686538 101.68108298 4.39892266 98.81413561 1.2265625 95.9140625 C-5.80006177 88.83542498 -5.80006177 88.83542498 -14.2109375 83.9765625 C-14.46488281 84.8221875 -14.71882813 85.6678125 -14.98046875 86.5390625 C-16.3006057 90.22706415 -18.01070367 93.56025547 -19.8984375 96.9765625 C-20.61852812 98.30526391 -21.33724813 99.63470891 -22.0546875 100.96484375 C-22.415625 101.63338379 -22.7765625 102.30192383 -23.1484375 102.99072266 C-27.59974761 111.3103358 -31.67911832 119.7001466 -34.97265625 128.55078125 C-36.40963224 131.36580361 -37.37418587 132.57060679 -40.2109375 133.9765625 C-45.24442867 133.83615828 -49.11499525 131.66013474 -53.3984375 129.2265625 C-54.72391561 128.49754954 -56.05075084 127.77099883 -57.37890625 127.046875 C-58.02778809 126.69270508 -58.67666992 126.33853516 -59.34521484 125.97363281 C-65.74741071 122.55220283 -72.18182117 119.7712305 -79.2109375 117.9765625 C-79.8709375 117.6465625 -80.5309375 117.3165625 -81.2109375 116.9765625 C-81.5234375 114.8515625 -81.5234375 114.8515625 -81.2109375 111.9765625 C-79.2734375 109.4140625 -79.2734375 109.4140625 -77.87890625 107.87890625 C-75.80207342 105.5102468 -73.95935721 103.00921069 -72.0859375 100.4765625 C-64.70213336 90.57834 -57.03824338 80.90725693 -49.18359375 71.37890625 C-48.53261719 70.58613281 -47.88164062 69.79335938 -47.2109375 68.9765625 C-46.44652344 68.11160156 -45.68210938 67.24664063 -44.89453125 66.35546875 C-44.33894531 65.57042969 -43.78335938 64.78539062 -43.2109375 63.9765625 C-44.34235543 60.58230871 -45.05279957 60.06131001 -47.8359375 57.9765625 C-49.04443359 57.06777344 -49.04443359 57.06777344 -50.27734375 56.140625 C-51.24542969 55.42648437 -52.21351563 54.71234375 -53.2109375 53.9765625 C-54.42849592 53.06785638 -55.64593669 52.1589926 -56.86328125 51.25 C-58.16600178 50.28295784 -59.46939702 49.31682399 -60.7734375 48.3515625 C-61.4221582 47.87041992 -62.07087891 47.38927734 -62.73925781 46.89355469 C-66.09334651 44.43298021 -69.42564469 42.2182894 -73.0859375 40.2265625 C-76.2109375 37.9765625 -76.2109375 37.9765625 -77.4609375 34.4765625 C-77.15013792 30.12536843 -76.1183685 29.18219155 -73.2109375 25.9765625 C-71.61306633 23.3419047 -70.09077317 20.67264394 -68.578125 17.98828125 C-67.90136719 16.99248047 -67.90136719 16.99248047 -67.2109375 15.9765625 C-66.5509375 15.9765625 -65.8909375 15.9765625 -65.2109375 15.9765625 C-64.9634375 15.0896875 -64.7159375 14.2028125 -64.4609375 13.2890625 C-62.8175161 8.93399578 -61.13720349 5.88900428 -56.8359375 3.8515625 C-52.86967648 4.04043207 -50.79095595 6.19199016 -48.2109375 8.9765625 C-46.70289231 10.90784653 -45.26965952 12.88129792 -43.83984375 14.87109375 C-41.5507697 17.82987292 -38.91638868 20.35331864 -36.234375 22.953125 C-33.57951083 25.60798917 -31.16537327 28.43706902 -28.75390625 31.3125 C-27.11705417 33.20741161 -27.11705417 33.20741161 -24.2109375 34.9765625 C-23.83001953 33.96142578 -23.83001953 33.96142578 -23.44140625 32.92578125 C-19.27251709 22.93368184 -13.66316575 13.64050816 -7.2109375 4.9765625 C-6.5509375 3.9246875 -5.8909375 2.8728125 -5.2109375 1.7890625 C-3.2109375 -0.0234375 -3.2109375 -0.0234375 0 0 Z M-0.2109375 11.9765625 C-1.24141787 13.5954621 -2.26008428 15.22188739 -3.2734375 16.8515625 C-3.84191406 17.75648438 -4.41039062 18.66140625 -4.99609375 19.59375 C-5.39699219 20.38007812 -5.79789062 21.16640625 -6.2109375 21.9765625 C-5.8809375 22.6365625 -5.5509375 23.2965625 -5.2109375 23.9765625 C-4.74042969 23.62722656 -4.26992188 23.27789063 -3.78515625 22.91796875 C-3.16253906 22.46292969 -2.53992188 22.00789062 -1.8984375 21.5390625 C-1.28355469 21.08660156 -0.66867187 20.63414062 -0.03515625 20.16796875 C1.7890625 18.9765625 1.7890625 18.9765625 4.7890625 17.9765625 C3.41922747 14.81540474 2.7999987 13.9838533 -0.2109375 11.9765625 Z M-56.2109375 17.9765625 C-58.46979074 21.23053758 -58.46979074 21.23053758 -59.2109375 24.9765625 C-55.23032973 26.14732949 -51.29472033 27.23405653 -47.2109375 27.9765625 C-48.59282203 24.76612368 -50.13515653 22.92719885 -52.8359375 20.7265625 C-53.46757812 20.20578125 -54.09921875 19.685 -54.75 19.1484375 C-55.23210937 18.76171875 -55.71421875 18.375 -56.2109375 17.9765625 Z M-8.2109375 24.9765625 C-7.2109375 26.9765625 -7.2109375 26.9765625 -7.2109375 26.9765625 Z " fill="#060606" transform="translate(295.2109375,500.0234375)"/>
<path d="M0 0 C9.51062784 7.98813648 15.42243889 20.1929579 16.6875 32.4375 C17.75381915 49.63137767 15.27333797 63.10680692 3.6875 76.4375 C-5.77936336 86.27753847 -16.85902126 90.32791997 -30.375 90.6875 C-42.10082572 90.37159027 -49.84989657 87.28537981 -58 78.8125 C-68.20180751 66.82274685 -72.44390721 48.6751669 -71.67578125 33.02734375 C-69.93954535 20.64966201 -61.28606109 13.19303197 -51.875 5.8125 C-49.38754029 3.95362083 -47.36386146 3.041066 -44.3125 2.4375 C-44.3125 1.7775 -44.3125 1.1175 -44.3125 0.4375 C-31.78058481 -7.73548817 -12.66177559 -8.62858453 0 0 Z M-24.3125 5.4375 C-24.3125 5.7675 -24.3125 6.0975 -24.3125 6.4375 C-23.35150391 6.69273437 -23.35150391 6.69273437 -22.37109375 6.953125 C-12.1782028 9.80895734 -5.40581002 13.6727666 0.171875 22.890625 C1.38334013 25.05492787 2.55638439 27.23032308 3.6875 29.4375 C4.98347984 25.54956049 4.08174127 24.28260702 2.5 20.5625 C2.07332031 19.53382813 1.64664063 18.50515625 1.20703125 17.4453125 C-1.73111871 11.62943726 -4.7877531 8.61370747 -10.71875 6.15234375 C-15.2245594 4.91053182 -19.68351858 5.12601714 -24.3125 5.4375 Z M-34.125 28.5625 C-37.80618562 34.37489835 -37.65344061 39.88419347 -36.3125 46.4375 C-35.33832142 48.66956304 -35.33832142 48.66956304 -34.3125 50.4375 C-29.53109411 50.90626528 -26.37462581 51.16771149 -22.3125 48.375 C-19.81202884 44.70243299 -19.16604211 42.90446563 -19.3125 38.4375 C-21.60077548 32.50825848 -21.60077548 32.50825848 -25.3125 27.4375 C-29.92562719 26.98481441 -29.92562719 26.98481441 -34.125 28.5625 Z " fill="#070707" transform="translate(518.3125,511.5625)"/>
<path d="M0 0 C3.30911921 3.94343075 3.63926261 8.23551323 4.0625 13.1875 C4.21416261 14.71256987 4.36909583 16.23731813 4.52734375 17.76171875 C4.6032373 18.49310059 4.67913086 19.22448242 4.75732422 19.97802734 C5.06284849 22.52365308 5.56193738 24.99968695 6.125 27.5 C8.05756906 36.61736211 8.05756906 36.61736211 7 41 C4.74564291 43.38727908 3.48709284 43.96743669 0.1953125 44.1875 C-0.81789063 44.125625 -1.83109375 44.06375 -2.875 44 C-7.72675533 43.89362778 -11.01212494 43.9324038 -15 47 C-18.45315049 51.83441069 -18.34198198 56.30030041 -18 62 C-7.88328124 62.3874488 0.35499829 60.79511864 9.671875 56.8984375 C12.91287254 55.64771697 15.5183587 55.0710539 19 55 C22.52297725 57.42775116 23.52592318 61.45968157 24.9375 65.3125 C26.79679928 70.37921582 28.93210145 74.50818229 32 79 C32.6875 82.0625 32.6875 82.0625 32 85 C24.01537509 93.38385616 8.1161251 94.76830282 -3.04296875 95.203125 C-17.5264375 95.47985715 -28.73574686 93.89101635 -40 84 C-40.60714844 83.48824219 -41.21429687 82.97648438 -41.83984375 82.44921875 C-49.05355098 75.34564446 -51.28420254 63.87512165 -51.5 54.125 C-51.25917396 48.1537492 -50.40379716 43.43393584 -48 38 C-47.48263023 36.72727036 -46.96719016 35.45375548 -46.453125 34.1796875 C-43.42120618 26.80873691 -40.42421052 19.95544763 -35 14 C-34.47921875 13.38898438 -33.9584375 12.77796875 -33.421875 12.1484375 C-26.06253507 4.06691935 -11.2488683 -3.23009672 0 0 Z M-24.90625 16.578125 C-26.43922025 18.31444844 -27.73813282 20.05866587 -29 22 C-29.63421875 22.9590625 -29.63421875 22.9590625 -30.28125 23.9375 C-31.58644769 25.9864269 -31.58644769 25.9864269 -33 29 C-32.67 29.66 -32.34 30.32 -32 31 C-31.67 30.01 -31.34 29.02 -31 28 C-29.25 27 -29.25 27 -27 26 C-26.278125 25.54625 -25.55625 25.0925 -24.8125 24.625 C-18.72727039 21.10908956 -13.03637697 18.59884059 -6 18 C-6.33 15.69 -6.66 13.38 -7 11 C-13.37587108 10.7117599 -19.92665175 12.45567071 -24.90625 16.578125 Z M6.4375 68.5 C5.42558594 68.7784375 4.41367187 69.056875 3.37109375 69.34375 C2.58863281 69.5603125 1.80617188 69.776875 1 70 C1 70.33 1 70.66 1 71 C5.62 71 10.24 71 15 71 C14.34 69.68 13.68 68.36 13 67 C10.80151066 67 8.53377806 67.9217164 6.4375 68.5 Z " fill="#080708" transform="translate(603,493)"/>
<path d="M0 0 C2.73582865 0.27197973 5.37556152 0.24032408 8.12353516 0.16210938 C9.12191406 0.13632812 10.12029297 0.11054687 11.14892578 0.08398438 C13.2223539 0.02087432 15.29536636 -0.05754291 17.36767578 -0.15039062 C20.13050944 -0.20783746 22.69027992 -0.21330777 25.41650391 0.24023438 C27.87404948 2.71075994 28.37429106 3.99384458 28.49072266 7.43164062 C28.29929687 8.60533203 28.29929687 8.60533203 28.10400391 9.80273438 C26.2420248 25.50542487 27.59980008 41.39632322 28.70483398 57.11376953 C29.18727124 64.11844497 29.5333604 71.1087753 29.60400391 78.13085938 C29.61818359 79.44602539 29.63236328 80.76119141 29.64697266 82.11621094 C29.41650391 85.24023438 29.41650391 85.24023438 27.41650391 87.24023438 C25.01580973 87.62567895 22.7010471 87.89705076 20.28369141 88.09179688 C19.57302521 88.15555511 18.86235901 88.21931335 18.13015747 88.28500366 C16.62245967 88.41852085 15.11437107 88.54768529 13.60595703 88.67285156 C11.32050742 88.86282353 9.03653448 89.06590611 6.75244141 89.27148438 C5.28375964 89.39987147 3.81501123 89.52749897 2.34619141 89.65429688 C1.33478592 89.74331772 1.33478592 89.74331772 0.302948 89.83413696 C-1.65728223 89.99490465 -3.62050016 90.1177772 -5.58349609 90.24023438 C-6.67377106 90.31017609 -6.67377106 90.31017609 -7.78607178 90.38153076 C-9.95410156 90.46435547 -9.95410156 90.46435547 -13.58349609 90.24023438 C-16.0301314 86.57028141 -15.66790073 84.24324246 -15.33349609 80.05273438 C-15.28193359 79.28010254 -15.23037109 78.5074707 -15.17724609 77.71142578 C-15.05728494 75.91848358 -14.93255878 74.12585661 -14.80419922 72.33349609 C-14.41933423 66.93942602 -14.06311105 61.54353007 -13.71499634 56.14697266 C-13.62714605 54.78964601 -13.53825415 53.43238639 -13.44833374 52.07519531 C-12.92477953 44.13008644 -12.51690159 36.19718979 -12.33740234 28.23632812 C-12.31994965 27.50428162 -12.30249695 26.77223511 -12.28451538 26.01800537 C-12.2029236 22.48964048 -12.13881297 18.96220881 -12.10107422 15.43310547 C-12.0759375 14.16934082 -12.05080078 12.90557617 -12.02490234 11.60351562 C-12.00472046 9.93736206 -12.00472046 9.93736206 -11.98413086 8.23754883 C-11.53082826 4.84620448 -10.65783274 2.94550618 -8.58349609 0.24023438 C-5.32584942 -0.84564785 -3.33152739 -0.47865459 0 0 Z M-0.58349609 11.24023438 C-0.58349609 14.21023438 -0.58349609 17.18023438 -0.58349609 20.24023438 C0.50962891 19.49773438 1.60275391 18.75523437 2.72900391 17.99023438 C3.34388672 17.57257812 3.95876953 17.15492188 4.59228516 16.72460938 C6.82770054 15.02785012 6.82770054 15.02785012 9.41650391 11.24023438 C6.11650391 11.24023438 2.81650391 11.24023438 -0.58349609 11.24023438 Z " fill="#070707" transform="translate(171.58349609375,537.759765625)"/>
<path d="M0 0 C4.10431651 3.1062018 6.26657888 7.62004914 7.86328125 12.41015625 C8.56514665 19.53236418 8.29204422 25.58283656 3.86328125 31.41015625 C-1.59178007 37.06278518 -5.40436112 39.54630184 -13.38671875 39.72265625 C-20.70473436 39.65753487 -24.05221954 38.24456093 -29.44921875 33.28515625 C-32.58841446 27.93689689 -33.67797322 22.06215054 -32.76171875 15.91015625 C-30.89985628 9.2757982 -26.5162164 3.46105264 -20.6328125 -0.109375 C-13.35782717 -3.25261294 -7.08812315 -3.83997351 0 0 Z M-19.13671875 11.41015625 C-19.91876288 13.47625153 -19.91876288 13.47625153 -20.13671875 15.41015625 C-19.54503906 15.13300781 -18.95335937 14.85585938 -18.34375 14.5703125 C-10.49524248 10.97254641 -10.49524248 10.97254641 -6.13671875 10.41015625 C-6.13671875 9.75015625 -6.13671875 9.09015625 -6.13671875 8.41015625 C-11.03348107 6.57387038 -15.15844378 8.3149096 -19.13671875 11.41015625 Z " fill="#080808" transform="translate(191.13671875,493.58984375)"/>
<path d="M0 0 C2.12352437 1.41568291 3.46969212 2.94305496 4.734375 5.15625 C4.404375 5.81625 4.074375 6.47625 3.734375 7.15625 C2.744375 7.15625 1.754375 7.15625 0.734375 7.15625 C0.734375 6.49625 0.734375 5.83625 0.734375 5.15625 C-1.42373888 6.10354537 -1.42373888 6.10354537 -3.265625 8.15625 C-3.595625 8.15625 -3.925625 8.15625 -4.265625 8.15625 C-4.265625 8.81625 -4.265625 9.47625 -4.265625 10.15625 C-4.925625 10.15625 -5.585625 10.15625 -6.265625 10.15625 C-6.265625 9.49625 -6.265625 8.83625 -6.265625 8.15625 C-9.235625 7.66125 -9.235625 7.66125 -12.265625 7.15625 C-12.265625 6.49625 -12.265625 5.83625 -12.265625 5.15625 C-13.915625 5.48625 -15.565625 5.81625 -17.265625 6.15625 C-16.935625 4.83625 -16.605625 3.51625 -16.265625 2.15625 C-17.255625 2.48625 -18.245625 2.81625 -19.265625 3.15625 C-19.265625 1.83625 -19.265625 0.51625 -19.265625 -0.84375 C-12.07204032 -3.65100256 -6.74702118 -3.66117428 0 0 Z " fill="#121211" transform="translate(191.265625,493.84375)"/>
<path d="M0 0 C3.39655838 1.69827919 3.90662542 5.64930231 5.125 9.0625 C5.40214844 9.82111328 5.67929687 10.57972656 5.96484375 11.36132812 C6.64962223 13.23856568 7.32563763 15.11899554 8 17 C4.15820312 16.22753906 4.15820312 16.22753906 2.734375 14.1796875 C0.59738972 9.17642831 -0.46321033 5.44272132 0 0 Z " fill="#1C1C1C" transform="translate(623,550)"/>
<path d="M0 0 C-0.25 2.375 -0.25 2.375 -1 5 C-3.0625 6.3125 -3.0625 6.3125 -5 7 C-4.67 5.68 -4.34 4.36 -4 3 C-6.97 2.505 -6.97 2.505 -10 2 C-7.85732894 -2.28534211 -3.95706306 -0.79141261 0 0 Z " fill="#0C0B0B" transform="translate(624,549)"/>
<path d="M0 0 C0.66 0.99 1.32 1.98 2 3 C1.01 4.32 0.02 5.64 -1 7 C-0.34 7 0.32 7 1 7 C1 7.66 1 8.32 1 9 C-1.86724686 8.42655063 -2.8614515 8.1385485 -5 6 C-5 3 -5 3 -3 1 C-2.34 1.33 -1.68 1.66 -1 2 C-0.67 1.34 -0.34 0.68 0 0 Z " fill="#0F0F0D" transform="translate(233,519)"/>
<path d="M0 0 C0.515625 0.37125 1.03125 0.7425 1.5625 1.125 C-6.86607143 4.55357143 -6.86607143 4.55357143 -11.4375 4.125 C-9.4375 1.125 -9.4375 1.125 -6.0625 -0.1875 C-2.4375 -0.875 -2.4375 -0.875 0 0 Z " fill="#0F0E0F" transform="translate(627.4375,580.875)"/>
<path d="M0 0 C1.32 0 2.64 0 4 0 C3.125 5.75 3.125 5.75 2 8 C2.66 8 3.32 8 4 8 C4 8.66 4 9.32 4 10 C2.35 10 0.7 10 -1 10 C-0.34 9.67 0.32 9.34 1 9 C0.649375 8.071875 0.29875 7.14375 -0.0625 6.1875 C-1 3 -1 3 0 0 Z " fill="#1E1D1D" transform="translate(617,557)"/>
<path d="M0 0 C0.66 0.33 1.32 0.66 2 1 C2.6328125 3.06640625 2.6328125 3.06640625 3.125 5.5625 C3.29257812 6.38878906 3.46015625 7.21507812 3.6328125 8.06640625 C3.75398437 8.70449219 3.87515625 9.34257813 4 10 C3.01 10 2.02 10 1 10 C0.67 10.66 0.34 11.32 0 12 C-1.53166168 7.91556885 -0.63081652 4.20544343 0 0 Z " fill="#0E0E10" transform="translate(581,548)"/>
<path d="M0 0 C0.99 0.66 1.98 1.32 3 2 C3 2.66 3 3.32 3 4 C0.69 4.66 -1.62 5.32 -4 6 C-4.33 5.01 -4.66 4.02 -5 3 C-3.35 2.01 -1.7 1.02 0 0 Z " fill="#1A1A18" transform="translate(588,501)"/>
<path d="M0 0 C0.66 0.99 1.32 1.98 2 3 C-1.63 3 -5.26 3 -9 3 C-8.67 2.01 -8.34 1.02 -8 0 C-4.67212881 -1.1092904 -3.3006216 -1.01557588 0 0 Z " fill="#282828" transform="translate(602,534)"/>
<path d="M0 0 C-2 2 -2 2 -3.9453125 2.1953125 C-5.96354167 2.13020833 -7.98177083 2.06510417 -10 2 C-9.67 1.34 -9.34 0.68 -9 0 C-5.65506316 -0.99444068 -3.31044803 -1.10348268 0 0 Z " fill="#3B3B3B" transform="translate(616,565)"/>
<path d="M0 0 C0.66 0 1.32 0 2 0 C2.99 2.64 3.98 5.28 5 8 C3.68 7.67 2.36 7.34 1 7 C0.67 4.69 0.34 2.38 0 0 Z " fill="#303030" transform="translate(626,559)"/>
<path d="M0 0 C0.99 0.33 1.98 0.66 3 1 C1.68 2.32 0.36 3.64 -1 5 C-1.99 4.67 -2.98 4.34 -4 4 C-2.68 2.68 -1.36 1.36 0 0 Z " fill="#030201" transform="translate(170,494)"/>
<path d="M0 0 C-0.33 0.99 -0.66 1.98 -1 3 C-3.31 3 -5.62 3 -8 3 C-6.23110084 -0.53779831 -3.70375662 0 0 0 Z " fill="#1D1D1D" transform="translate(622,548)"/>
<path d="M0 0 C1.32 0.66 2.64 1.32 4 2 C3.01 2.99 2.02 3.98 1 5 C0.01 4.67 -0.98 4.34 -2 4 C-1.34 2.68 -0.68 1.36 0 0 Z " fill="#0D0C0B" transform="translate(241,511)"/>
<path d="M0 0 C0 3 0 3 -2 5.1875 C-2.66 5.785625 -3.32 6.38375 -4 7 C-4.33 5.02 -4.66 3.04 -5 1 C-3.35 0.67 -1.7 0.34 0 0 Z " fill="#1D1C1C" transform="translate(572,507)"/>
<path d="M0 0 C1.32 0 2.64 0 4 0 C4.33 0.99 4.66 1.98 5 3 C3.02 3.66 1.04 4.32 -1 5 C-1 2 -1 2 0 0 Z " fill="#020101" transform="translate(175,499)"/>
<path d="M0 0 C1.32 0.66 2.64 1.32 4 2 C4 2.66 4 3.32 4 4 C2.02 4.33 0.04 4.66 -2 5 C-1.34 3.35 -0.68 1.7 0 0 Z " fill="#161515" transform="translate(165,498)"/>
<path d="M0 0 C0.33 0.99 0.66 1.98 1 3 C1.66 3.33 2.32 3.66 3 4 C2.01 4.495 2.01 4.495 1 5 C0.67 5.99 0.34 6.98 0 8 C-0.66 8 -1.32 8 -2 8 C-2.6875 6.25 -2.6875 6.25 -3 4 C-1.5625 1.75 -1.5625 1.75 0 0 Z " fill="#22221F" transform="translate(45,454)"/>
</svg>