<svg width="128" height="128" viewBox="0 0 128 128" fill="none" xmlns="http://www.w3.org/2000/svg">
<g clip-path="url(#clip0_58_7888)">
<path d="M87.2953 83.0031C83.2336 86.6085 78.1659 91.0955 68.9506 91.0955H63.4552C56.794 91.0955 50.7372 88.6776 46.4031 84.2885C42.1693 80.0022 39.8374 74.1342 39.8374 67.7644V60.2358C39.8374 53.866 42.1693 47.998 46.4031 43.7117C50.7372 39.3226 56.794 36.9047 63.4552 36.9047H68.9506C78.1659 36.9047 83.2288 41.3917 87.2953 44.9971C91.5124 48.7363 95.156 51.9642 104.861 51.9642C106.342 51.9645 107.82 51.8463 109.281 51.6106C109.281 51.5819 109.262 51.5556 109.25 51.5269C108.668 50.0832 107.986 48.682 107.207 47.3338L100.718 36.0923C97.7924 31.0252 93.5845 26.8174 88.5174 23.8916C83.4502 20.9659 77.7023 19.4254 71.8511 19.4248H58.8703C53.0191 19.4254 47.2712 20.9659 42.204 23.8916C37.1368 26.8174 32.929 31.0252 30.0032 36.0923L23.5139 47.3338C20.5886 52.4011 19.0486 58.149 19.0486 64.0001C19.0486 69.8511 20.5886 75.5991 23.5139 80.6664L30.0032 91.9079C32.9291 96.9747 37.1371 101.182 42.2042 104.108C47.2714 107.033 53.0193 108.573 58.8703 108.573H71.8511C77.7021 108.573 83.45 107.033 88.5172 104.108C93.5843 101.182 97.7923 96.9747 100.718 91.9079L107.207 80.6664C107.986 79.3182 108.668 77.917 109.25 76.4732C109.25 76.4446 109.272 76.4183 109.281 76.3896C107.82 76.1539 106.342 76.0357 104.861 76.036C95.156 76.036 91.5124 79.2639 87.2953 83.0031Z" fill="#006BFF"/>
<path d="M68.9506 43.7236H63.4553C53.32 43.7236 46.6588 50.9631 46.6588 60.2311V67.7596C46.6588 77.0276 53.32 84.267 63.4553 84.267H68.9506C83.721 84.267 82.5694 69.2147 104.861 69.2147C106.975 69.213 109.084 69.4057 111.162 69.7905C111.838 65.9607 111.838 62.042 111.162 58.2121C109.084 58.5989 106.975 58.7924 104.861 58.7903C82.5622 58.7879 83.721 43.7236 68.9506 43.7236Z" fill="#006BFF"/>
<path d="M123.973 75.2929C120.173 72.5156 115.793 70.6367 111.162 69.7976C111.162 69.8358 111.15 69.874 111.143 69.9099C110.745 72.1307 110.121 74.3051 109.281 76.3991C113.108 76.9911 116.738 78.4849 119.873 80.7571C119.873 80.7906 119.854 80.824 119.842 80.8598C118.065 86.6297 115.38 92.0794 111.888 97.0041C108.436 101.883 104.244 106.194 99.4638 109.782C87.892 118.487 73.4479 122.477 59.0483 120.947C44.6487 119.416 31.3663 112.479 21.8831 101.535C12.3999 90.5915 7.4224 76.4573 7.95571 61.9863C8.48901 47.5154 14.4934 33.7859 24.7564 23.5701C31.7285 16.6031 40.3825 11.5558 49.8793 8.91749C59.3761 6.27916 69.3934 6.13932 78.9602 8.51153C88.5269 10.8837 97.3184 15.6875 104.482 22.4571C111.646 29.2267 116.94 37.7325 119.849 47.1497C119.861 47.1856 119.871 47.219 119.88 47.2525C116.743 49.5249 113.11 51.0179 109.281 51.6081C110.121 53.704 110.746 55.8798 111.145 58.1021C111.145 58.1379 111.145 58.1738 111.162 58.2072C115.793 57.3703 120.174 55.4911 123.973 52.7119C127.626 50.0097 126.919 46.9562 126.362 45.1499C118.313 18.9994 93.9685 0 65.1851 0C29.8407 0 1.18628 28.6544 1.18628 63.9988C1.18628 99.3432 29.8407 128 65.1851 128C93.9685 128 118.313 109.001 126.35 82.8573C126.919 81.051 127.626 77.9975 123.973 75.2929Z" fill="#006BFF"/>
<path d="M109.281 51.6083C107.82 51.8439 106.342 51.9622 104.861 51.9619C95.156 51.9619 91.5124 48.734 87.2953 44.9948C83.2336 41.3894 78.166 36.9023 68.9506 36.9023H63.4553C56.794 36.9023 50.7372 39.3203 46.4031 43.7094C42.1693 47.9957 39.8374 53.8637 39.8374 60.2335V67.7621C39.8374 74.1318 42.1693 79.9999 46.4031 84.2862C50.7372 88.6753 56.794 91.0932 63.4553 91.0932H68.9506C78.166 91.0932 83.2288 86.6062 87.2953 83.0008C91.5124 79.2616 95.156 76.0337 104.861 76.0337C106.342 76.0334 107.82 76.1516 109.281 76.3873C110.121 74.2934 110.745 72.119 111.143 69.8981C111.143 69.8622 111.157 69.824 111.162 69.7858C109.084 69.401 106.975 69.2082 104.861 69.21C82.5622 69.21 83.721 84.2623 68.9506 84.2623H63.4553C53.32 84.2623 46.6588 77.0229 46.6588 67.7549V60.2359C46.6588 50.9679 53.32 43.7285 63.4553 43.7285H68.9506C83.721 43.7285 82.5694 58.7808 104.861 58.7808C106.975 58.7829 109.084 58.5894 111.162 58.2026C111.162 58.1692 111.162 58.1333 111.145 58.0975C110.745 55.8769 110.121 53.7026 109.281 51.6083Z" fill="#0AE9EF"/>
<path d="M109.281 51.6083C107.82 51.8439 106.342 51.9622 104.861 51.9619C95.156 51.9619 91.5124 48.734 87.2953 44.9948C83.2336 41.3894 78.166 36.9023 68.9506 36.9023H63.4553C56.794 36.9023 50.7372 39.3203 46.4031 43.7094C42.1693 47.9957 39.8374 53.8637 39.8374 60.2335V67.7621C39.8374 74.1318 42.1693 79.9999 46.4031 84.2862C50.7372 88.6753 56.794 91.0932 63.4553 91.0932H68.9506C78.166 91.0932 83.2288 86.6062 87.2953 83.0008C91.5124 79.2616 95.156 76.0337 104.861 76.0337C106.342 76.0334 107.82 76.1516 109.281 76.3873C110.121 74.2934 110.745 72.119 111.143 69.8981C111.143 69.8622 111.157 69.824 111.162 69.7858C109.084 69.401 106.975 69.2082 104.861 69.21C82.5622 69.21 83.721 84.2623 68.9506 84.2623H63.4553C53.32 84.2623 46.6588 77.0229 46.6588 67.7549V60.2359C46.6588 50.9679 53.32 43.7285 63.4553 43.7285H68.9506C83.721 43.7285 82.5694 58.7808 104.861 58.7808C106.975 58.7829 109.084 58.5894 111.162 58.2026C111.162 58.1692 111.162 58.1333 111.145 58.0975C110.745 55.8769 110.121 53.7026 109.281 51.6083Z" fill="#0AE9EF"/>
</g>
<defs>
<clipPath id="clip0_58_7888">
<rect width="125.627" height="128" fill="white" transform="translate(1.18628)"/>
</clipPath>
</defs>
</svg>
