<svg width="128" height="128" viewBox="0 0 128 128" fill="none" xmlns="http://www.w3.org/2000/svg">
<g clip-path="url(#clip0_0_867)">
<path d="M57.1946 80.2204C56.2073 80.2204 55.22 80.0088 54.3032 79.5856L33.9924 70.5586C30.3252 68.9366 28.7032 64.7052 30.3252 61.038L39.3522 40.7978C40.9742 37.2011 45.2057 35.5085 48.8729 37.1305L69.1836 46.1575C72.7803 47.7796 74.4729 52.011 72.8508 55.6782L63.7533 75.9889C62.5544 78.6688 59.945 80.2204 57.1946 80.2204ZM55.9252 75.7774C57.4767 76.4826 59.2398 75.7774 59.945 74.2259L68.972 53.9151C69.6773 52.3636 68.972 50.6005 67.4205 49.8953L47.1803 40.9388C45.6288 40.2336 43.8657 40.9388 43.1605 42.4903L34.1335 62.7305C33.4282 64.2821 34.1335 66.0451 35.685 66.7504L55.9252 75.7774Z" fill="#089949"/>
<path d="M120.807 80.2204H98.5918C94.6425 80.2204 91.3984 76.9763 91.3984 73.027V50.8121C91.3984 46.8628 94.6425 43.6187 98.5918 43.6187H120.807C124.756 43.6187 128 46.8628 128 50.8121V73.027C128 76.9763 124.756 80.2204 120.807 80.2204ZM98.5918 47.7796C96.8993 47.7796 95.5593 49.1195 95.5593 50.8121V73.027C95.5593 74.7195 96.8993 76.0595 98.5918 76.0595H120.807C122.499 76.0595 123.839 74.7195 123.839 73.027V50.8121C123.839 49.1195 122.499 47.7796 120.807 47.7796H98.5918Z" fill="#F9B21D"/>
<path d="M37.589 54.9025L34.627 61.6022C34.5565 61.6727 34.5565 61.7432 34.486 61.8138L35.6849 69.0072C35.967 70.6997 34.8386 72.2512 33.146 72.4628L11.2133 75.989C10.4375 76.13 9.59123 75.9184 8.95652 75.4248C8.32181 74.9311 7.89867 74.2259 7.75762 73.4501L4.23145 51.5173C4.0904 50.7416 4.30197 49.8953 4.79564 49.2606C5.2893 48.6259 5.99453 48.2027 6.77029 48.0617L28.7031 44.5355C28.8441 44.5355 29.0557 44.465 29.1967 44.465C30.6777 44.465 31.9472 45.5229 32.2292 47.0039L33.4281 54.2678L36.5312 47.3565L36.3901 46.3691C35.7554 42.4198 32.0882 39.7399 28.1389 40.3747L6.20611 43.9008C4.30197 44.1829 2.60941 45.2408 1.55156 46.7923C0.423185 48.3438 4.41968e-05 50.2479 0.282138 52.1521L3.80831 74.0848C4.0904 75.989 5.14825 77.6815 6.69977 78.8099C7.89867 79.7267 9.37966 80.1499 10.9312 80.1499C11.2838 80.1499 11.7069 80.1499 12.1301 80.0793L34.0629 76.5532C38.0122 75.9184 40.6921 72.2512 40.0573 68.3019L37.589 54.9025Z" fill="#E42527"/>
<path d="M63.8943 65.3399L67.1384 58.1465L66.2216 51.4468C66.0806 50.671 66.2921 49.8248 66.7858 49.1901C67.2795 48.5553 67.9847 48.1322 68.831 47.9912L90.8343 45.0292C90.9753 45.0292 91.1164 45.0292 91.2574 45.0292C91.8921 45.0292 92.5268 45.2407 93.091 45.6639C93.1616 45.7344 93.3026 45.8049 93.3731 45.8755C94.3604 44.8176 95.6299 44.1124 97.0403 43.8303C96.6172 43.2661 96.1235 42.7724 95.5593 42.3493C94.0078 41.1504 92.1037 40.6567 90.1996 40.9388L68.1257 43.9008C66.2216 44.1829 64.529 45.1702 63.4007 46.6512C62.2018 48.2027 61.7081 50.1069 61.9902 52.011L63.8943 65.3399Z" fill="#226DB4"/>
<path d="M101.413 69.0777L98.5213 47.7796C96.8993 47.8501 95.5593 49.1901 95.5593 50.8121V57.0887L97.2519 69.6419C97.393 70.4176 97.1814 71.2639 96.6877 71.8986C96.1941 72.5333 95.4888 72.9565 94.6425 73.0975L72.6392 76.0595C71.8635 76.2005 71.0172 75.989 70.3825 75.4953C69.7478 75.0016 69.3246 74.2964 69.1836 73.4501L68.1963 65.9746L65.0227 73.168L65.1638 74.0143C65.4458 75.9184 66.4332 77.611 67.9142 78.7394C69.1836 79.7267 70.6646 80.2204 72.2866 80.2204C72.6392 80.2204 72.9213 80.2204 73.2739 80.1498L95.2773 77.1879C97.1814 76.9058 98.874 75.9184 100.002 74.4375C101.131 72.8859 101.624 70.9818 101.413 69.0777Z" fill="#226DB4"/>
<path d="M39.2817 90.7989L42.4553 86.1443H39.8459C39.7048 86.1443 39.5638 86.0033 39.5638 85.8622V85.2275C39.5638 85.0865 39.7048 84.9454 39.8459 84.9454H44.0773C44.2183 84.9454 44.3594 85.0865 44.3594 85.2275V85.4391C44.3594 85.5096 44.3594 85.5096 44.2889 85.5801L41.1858 90.2347H43.9363C44.0773 90.2347 44.2183 90.3757 44.2183 90.5168V91.1515C44.2183 91.2925 44.0773 91.4336 43.9363 91.4336H39.4933C39.3522 91.4336 39.2112 91.2925 39.2112 91.1515V90.9399C39.2112 90.8694 39.2817 90.7989 39.2817 90.7989Z" fill="black"/>
<path d="M52.54 88.1895C52.54 86.2854 53.9505 84.9454 55.8546 84.9454C57.8293 84.9454 59.1692 86.2854 59.1692 88.26C59.1692 90.2347 57.8293 91.5746 55.8546 91.5746C53.8095 91.5041 52.54 90.1642 52.54 88.1895ZM57.6177 88.1895C57.6177 87.0611 57.0535 86.0738 55.7841 86.0738C54.5147 86.0738 54.021 87.1317 54.021 88.26C54.021 89.3884 54.5852 90.3757 55.8546 90.3757C57.1241 90.3757 57.6177 89.2474 57.6177 88.1895Z" fill="black"/>
<path d="M68.1258 85.0159H69.0427C69.1837 85.0159 69.3247 85.157 69.3247 85.298V87.6253H72.0046V85.298C72.0046 85.157 72.1457 85.0159 72.2867 85.0159H73.2035C73.3446 85.0159 73.4856 85.157 73.4856 85.298V91.222C73.4856 91.363 73.3446 91.5041 73.2035 91.5041H72.2867C72.1457 91.5041 72.0046 91.363 72.0046 91.222V88.8242H69.3247V91.222C69.3247 91.363 69.1837 91.5041 69.0427 91.5041H68.1258C67.9848 91.5041 67.8438 91.363 67.8438 91.222V85.298C67.8438 85.0864 67.9848 85.0159 68.1258 85.0159Z" fill="black"/>
<path d="M82.1599 88.1895C82.1599 86.2854 83.5704 84.9454 85.4745 84.9454C87.4492 84.9454 88.7891 86.2854 88.7891 88.26C88.7891 90.2347 87.4492 91.5746 85.4745 91.5746C83.4999 91.5041 82.1599 90.1642 82.1599 88.1895ZM87.2376 88.1895C87.2376 87.0611 86.6734 86.0738 85.404 86.0738C84.1346 86.0738 83.6409 87.1317 83.6409 88.26C83.6409 89.3884 84.2051 90.3757 85.4745 90.3757C86.7439 90.3757 87.2376 89.2474 87.2376 88.1895Z" fill="black"/>
</g>
<defs>
<clipPath id="clip0_0_867">
<rect width="128" height="55.0083" fill="white" transform="translate(0 36.4958)"/>
</clipPath>
</defs>
</svg>
